<svg id="phone" xmlns="http://www.w3.org/2000/svg" viewBox="0 0 30.46 30.46"><defs><style>.cls-1{fill:#9fa0a0;}</style></defs><title>social-pintrest</title><path class="cls-1" d="M858,3999.21a15.23,15.23,0,0,0-6.12,29.18,13.26,13.26,0,0,1,.26-3.5l2-8.3a5.85,5.85,0,0,1-.49-2.41c0-2.26,1.31-3.94,2.94-3.94a2,2,0,0,1,2.05,2.29c0,1.39-.89,3.48-1.34,5.41a2.36,2.36,0,0,0,2.4,2.93c2.89,0,4.83-3.71,4.83-8.1,0-3.34-2.25-5.84-6.34-5.84a7.21,7.21,0,0,0-7.5,7.29,4.39,4.39,0,0,0,1,3,0.74,0.74,0,0,1,.22.85c-0.07.28-.24,1-0.31,1.22a0.53,0.53,0,0,1-.76.38c-2.13-.87-3.12-3.2-3.12-5.82,0-4.33,3.65-9.52,10.88-9.52,5.82,0,9.65,4.21,9.65,8.72,0,6-3.32,10.44-8.22,10.44a4.37,4.37,0,0,1-3.72-1.9s-0.89,3.51-1.07,4.19a12.84,12.84,0,0,1-1.53,3.26,15.23,15.23,0,1,0,4.32-29.84h0Zm0,0" transform="translate(-842.77 -3999.21)"/></svg>