<svg id="phone" xmlns="http://www.w3.org/2000/svg" viewBox="0 0 30.46 30.46"><defs><style>.cls-1{fill:#9fa0a0;}</style></defs><title>social-instagram</title><path class="cls-1" d="M669.32,3999.21H655.67a8.42,8.42,0,0,0-8.41,8.41v13.65a8.42,8.42,0,0,0,8.41,8.41h13.65a8.42,8.42,0,0,0,8.41-8.41v-13.65a8.42,8.42,0,0,0-8.41-8.41h0Zm5.7,22.06a5.71,5.71,0,0,1-5.7,5.7H655.67a5.71,5.71,0,0,1-5.7-5.7v-13.65a5.71,5.71,0,0,1,5.7-5.7h13.65a5.71,5.71,0,0,1,5.7,5.7v13.65Zm0,0" transform="translate(-647.26 -3999.21)"/><path class="cls-1" d="M662.49,4006.6a7.85,7.85,0,1,0,7.85,7.85,7.86,7.86,0,0,0-7.85-7.85h0Zm0,13a5.15,5.15,0,1,1,5.15-5.15,5.15,5.15,0,0,1-5.15,5.15h0Zm0,0" transform="translate(-647.26 -3999.21)"/><path class="cls-1" d="M670.67,4004.3a2,2,0,1,0,1.4.58,2,2,0,0,0-1.4-.58h0Zm0,0" transform="translate(-647.26 -3999.21)"/></svg>