<?xml version="1.0" encoding="utf-8"?>
<!-- Generator: Adobe Illustrator 21.1.0, SVG Export Plug-In . SVG Version: 6.00 Build 0)  -->
<svg version="1.1" id="圖層_1" xmlns="http://www.w3.org/2000/svg" xmlns:xlink="http://www.w3.org/1999/xlink" x="0px" y="0px"
	 viewBox="0 0 25 25" style="enable-background:new 0 0 25 25;" xml:space="preserve">
<style type="text/css">
	.st0{fill:#231815;}
</style>
<g>
	<g>
		<path class="st0" d="M20,22.7c0.7-0.2,1.1-0.6,1.4-1.3c0-0.1,0-0.1,0.1-0.2c0-0.2,0-0.4,0-0.6c0,0,0,0,0-0.1c0,0,0-0.1,0-0.1v0
			c0,0,0-0.1,0-0.1c0,0,0-0.1,0-0.1c0,0,0-0.1,0-0.1c0,0,0-0.1,0-0.1c0,0,0-0.1,0-0.1c-0.1,0,0-0.1,0-0.1c-0.1-3.1-0.3-6.1-0.4-9.2
			c-0.1-1.2-0.1-2.4-0.2-3.6c0-1.1-0.8-1.9-2-1.9c-0.9,0-1.9,0-2.8,0c-0.1,0-0.2,0-0.2-0.2c-0.3-1.6-1.8-2.7-3.4-2.7
			c-1.6,0-3,1.2-3.3,2.7c0,0.2-0.1,0.2-0.3,0.2c-0.9,0-1.8,0-2.8,0c-1.1,0-1.9,0.7-2,1.9C4,9.6,3.9,12.2,3.8,14.7
			c-0.1,1.9-0.2,3.9-0.3,5.8c0,0.8,0.2,1.4,0.8,1.9c0.2,0.2,0.5,0.2,0.8,0.3c0.1,0,0.2,0,0.2,0c0.1-0.1,0.1,0,0.2,0
			c4.6,0,9.3,0,13.9,0c0.1,0,0.1,0,0.2,0c0.1,0,0.1,0,0.2,0C19.9,22.6,20,22.7,20,22.7z M10.8,5c0.3-0.7,1-1.2,1.7-1.2
			c0.7,0,1.4,0.5,1.7,1.2c0,0.1,0,0.2-0.1,0.2c-0.5,0-1.1,0-1.6,0c-0.5,0-1.1,0-1.6,0C10.8,5.2,10.7,5.2,10.8,5z M19.5,21.1
			c-2.3,0-4.7,0-7,0c-2.3,0-4.6,0-7,0c-0.3,0-0.4-0.1-0.4-0.4c0.1-2,0.2-4,0.3-6c0.1-1.6,0.1-3.3,0.2-4.9c0-0.9,0.1-1.9,0.1-2.8
			c0-0.2,0.1-0.3,0.3-0.3c1,0,1.9,0,2.9,0c0.2,0,0.2,0.1,0.2,0.2c0,0.9,0,1.8,0,2.7c0,0.6,0.6,1,1.1,0.7c0.3-0.2,0.5-0.4,0.5-0.8
			c0-0.9,0-1.7,0-2.6c0-0.2,0.1-0.2,0.3-0.2c1.1,0,2.1,0,3.2,0c0.2,0,0.2,0,0.2,0.2c0,0.9,0,1.8,0,2.7c0,0.4,0.3,0.7,0.6,0.8
			c0.4,0.1,0.8-0.1,0.9-0.5c0-0.1,0.1-0.2,0.1-0.4c0-0.9,0-1.8,0-2.6c0-0.2,0-0.2,0.2-0.2c0.9,0,1.8,0,2.8,0c0.3,0,0.4,0.1,0.4,0.4
			c0.1,2.3,0.2,4.6,0.3,6.9c0.1,1.6,0.1,3.3,0.2,4.9c0,0.6,0.1,1.2,0.1,1.8C19.9,21,19.8,21.1,19.5,21.1z"/>
	</g>
</g>
</svg>
