<svg id="phone" xmlns="http://www.w3.org/2000/svg" xmlns:xlink="http://www.w3.org/1999/xlink" viewBox="0 0 30.46 20.99"><defs><style>.cls-1{fill:none;}.cls-2{clip-path:url(#clip-path);}.cls-3{fill:#9fa0a0;}</style><clipPath id="clip-path" transform="translate(-940.53 -4003.87)"><rect class="cls-1" x="940.53" y="4003.87" width="30.46" height="21.16"/></clipPath></defs><title>social-twitter</title><g class="cls-2"><path class="cls-3" d="M967.54,4013.2a3.69,3.69,0,0,0,3.32-2,5.46,5.46,0,0,1-3.59.4c-0.05-.25-0.11-0.48-0.17-0.7-0.81-3-3.57-5.35-6.46-5.06l0.71-.26c0.32-.11,2.19-0.42,1.89-1.08s-2.53.44-3,.57c0.57-.21,1.51-0.58,1.6-1.23a4.54,4.54,0,0,0-2.38,1.13,1.64,1.64,0,0,0,.46-0.9c-2.32,1.48-3.67,4.47-4.77,7.36a11.41,11.41,0,0,0-2.31-1.85,60.36,60.36,0,0,0-7.82-3.44c-0.11,1.19.59,2.78,2.61,3.83a6.43,6.43,0,0,0-1.88.22c0.26,1.36,1.11,2.49,3.41,3a2.79,2.79,0,0,0-2.09.82,3.54,3.54,0,0,0,3.75,1.84c-2.34,1-1,2.87.95,2.59a8.08,8.08,0,0,1-11.3.3c7.67,10.45,24.34,6.18,26.83-3.89a4.63,4.63,0,0,0,3.63-1.37,7.42,7.42,0,0,1-3.45-.35h0Zm0,0" transform="translate(-940.53 -4003.87)"/></g></svg>